<svg width="90" height="91" viewBox="0 0 90 91" fill="none" xmlns="http://www.w3.org/2000/svg">
<path fill-rule="evenodd" clip-rule="evenodd" d="M58.8627 86.8257H58.8513C58.3691 86.8257 57.9463 87.0169 57.5942 87.2917C57.5264 87.3455 57.4415 87.3767 57.3807 87.4376C57.0428 87.7775 56.8476 88.2421 56.8052 88.7492C56.801 88.8059 56.7727 88.8555 56.7727 88.9136C56.7727 89.1713 56.8335 89.4121 56.9197 89.6388C56.948 89.7124 56.9834 89.7762 57.0187 89.8456C57.0951 89.9943 57.187 90.1317 57.2973 90.2578C57.351 90.3201 57.3991 90.3838 57.4599 90.4391C57.6268 90.5906 57.8106 90.7238 58.0199 90.8159H58.0213C58.2801 90.9306 58.5629 91 58.8627 91C59.7917 91 60.551 90.3824 60.8211 89.5396C60.8932 89.347 60.9427 89.1459 60.9442 88.9249C60.9442 88.9206 60.947 88.9178 60.947 88.9136C60.947 87.7591 60.0137 86.8257 58.8627 86.8257ZM88.0198 61.937C87.8176 61.852 87.5927 61.8194 87.3622 61.8038C87.3212 61.8024 87.2887 61.7798 87.2463 61.7798H87.235C86.0839 61.7798 85.1563 62.7143 85.1563 63.8684C85.1563 64.1487 85.2157 64.4135 85.3161 64.6542C85.3868 64.827 85.5028 64.9657 85.6116 65.1116C85.6569 65.1668 85.6823 65.2348 85.7304 65.2857C86.0769 65.6539 86.5548 65.8805 87.0893 65.9229C87.0922 65.9229 87.095 65.9244 87.0978 65.9258V65.9244C87.1487 65.9286 87.194 65.9541 87.2463 65.9541C88.3973 65.9541 89.3306 65.0195 89.3306 63.8684C89.3306 62.9904 88.7862 62.2456 88.0198 61.937ZM16.2818 25.0459H16.2705C15.1194 25.0459 14.1918 25.9804 14.1918 27.133C14.1918 28.2842 15.1308 29.2202 16.2818 29.2202C17.4314 29.2202 18.3661 28.2842 18.3661 27.133C18.3661 25.9804 17.4314 25.0459 16.2818 25.0459ZM16.2818 74.3027H16.2705C15.1194 74.3027 14.1918 75.2362 14.1918 76.3906C14.1918 77.5422 15.1308 78.477 16.2818 78.477C17.4314 78.477 18.3661 77.5422 18.3661 76.3906C18.3661 75.2362 17.4314 74.3027 16.2818 74.3027ZM30.4736 41.7431C31.6247 41.7431 32.558 40.8071 32.558 39.6559C32.558 38.5019 31.6247 37.5688 30.4736 37.5688H30.4637C29.3113 37.5688 28.3836 38.5019 28.3836 39.6559C28.3836 40.8071 29.3226 41.7431 30.4736 41.7431ZM16.2818 12.523H16.2705C15.1194 12.523 14.1918 13.4575 14.1918 14.6101C14.1918 15.7627 15.1308 16.6973 16.2818 16.6973C17.4314 16.6973 18.3661 15.7627 18.3661 14.6101C18.3661 13.4575 17.4314 12.523 16.2818 12.523ZM16.2818 49.2569H16.2705C15.1194 49.2569 14.1918 50.1915 14.1918 51.3441C14.1918 52.4967 15.1308 53.4312 16.2818 53.4312C17.4314 53.4312 18.3661 52.4967 18.3661 51.3441C18.3661 50.1915 17.4314 49.2569 16.2818 49.2569ZM16.2818 61.7798H16.2705C15.1194 61.7798 14.1918 62.7143 14.1918 63.8684C14.1918 65.0195 15.1308 65.9541 16.2818 65.9541C17.4314 65.9541 18.3661 65.0195 18.3661 63.8684C18.3661 62.7143 17.4314 61.7798 16.2818 61.7798ZM30.4736 16.6973C31.6247 16.6973 32.558 15.7627 32.558 14.6101C32.558 13.4575 31.6247 12.523 30.4736 12.523H30.4637C29.3113 12.523 28.3836 13.4575 28.3836 14.6101C28.3836 15.7627 29.3226 16.6973 30.4736 16.6973ZM30.4736 29.2202C31.6247 29.2202 32.558 28.2842 32.558 27.133C32.558 25.9804 31.6247 25.0459 30.4736 25.0459H30.4637C29.3113 25.0459 28.3836 25.9804 28.3836 27.133C28.3836 28.2842 29.3226 29.2202 30.4736 29.2202ZM30.4736 4.17431C31.6247 4.17431 32.558 3.23976 32.558 2.08716C32.558 0.934547 31.6247 0 30.4736 0H30.4637C29.3113 0 28.3836 0.934547 28.3836 2.08716C28.3836 3.23976 29.3226 4.17431 30.4736 4.17431ZM16.2818 37.5688H16.2705C15.1194 37.5688 14.1918 38.5019 14.1918 39.6559C14.1918 40.8071 15.1308 41.7431 16.2818 41.7431C17.4314 41.7431 18.3661 40.8071 18.3661 39.6559C18.3661 38.5019 17.4314 37.5688 16.2818 37.5688ZM2.0914 49.2569H2.07867C0.927625 49.2569 0 50.1915 0 51.3441C0 52.4967 0.940352 53.4312 2.0914 53.4312C3.24244 53.4312 4.17431 52.4967 4.17431 51.3441C4.17431 50.1915 3.24244 49.2569 2.0914 49.2569ZM2.0914 37.5688H2.07867C0.927625 37.5688 0 38.5019 0 39.6559C0 40.8071 0.940352 41.7431 2.0914 41.7431C3.24244 41.7431 4.17431 40.8071 4.17431 39.6559C4.17431 38.5019 3.24244 37.5688 2.0914 37.5688ZM2.09069 61.7798H2.07796C1.81627 61.7798 1.57156 61.8392 1.34381 61.9299C1.22782 61.9738 1.13163 62.0446 1.02696 62.1083C0.939256 62.1635 0.850139 62.2131 0.770925 62.2825C0.633715 62.3943 0.526209 62.5246 0.421533 62.669C0.40173 62.6987 0.381926 62.7257 0.362123 62.7582C0.248959 62.9338 0.165501 63.1179 0.10892 63.3246L0.107505 63.326V63.3274C0.0594107 63.503 0 63.6758 0 63.8684C0 64.6896 0.488017 65.3849 1.17973 65.7247V65.7261H1.18114C1.45698 65.8606 1.75403 65.9498 2.07938 65.9513C2.08362 65.9513 2.08645 65.9541 2.09069 65.9541C3.24213 65.9541 4.17431 65.0195 4.17431 63.8684C4.17431 63.5795 4.11632 63.3048 4.01023 63.0556C3.69478 62.3065 2.95356 61.7798 2.09069 61.7798ZM73.0545 37.5688H73.0432C71.8921 37.5688 70.9645 38.5019 70.9645 39.6559C70.9645 40.8071 71.9034 41.7431 73.0545 41.7431C74.2055 41.7431 75.1388 40.8071 75.1388 39.6559C75.1388 38.5019 74.2055 37.5688 73.0545 37.5688ZM2.09069 25.0459H2.07796C1.84032 25.0459 1.62106 25.0983 1.41454 25.1804C1.22641 25.2455 1.06232 25.3432 0.903892 25.4565C0.902477 25.4565 0.902478 25.4565 0.901063 25.4579C0.367781 25.836 0 26.4279 0 27.133C0 27.2222 0.0396072 27.2973 0.0509235 27.3851H0.049509C0.049509 27.3879 0.0509235 27.3893 0.052338 27.3907C0.117407 27.8991 0.345148 28.3479 0.708685 28.6736C0.758194 28.7189 0.820434 28.7444 0.872772 28.7841C1.01564 28.8888 1.15285 28.9979 1.32118 29.0644C1.55741 29.1621 1.81486 29.2202 2.09069 29.2202C2.95356 29.2202 3.69478 28.6948 4.01023 27.9444C4.11632 27.6952 4.17431 27.4205 4.17431 27.133C4.17431 26.8456 4.11632 26.5709 4.01023 26.3217C3.69478 25.5712 2.95356 25.0459 2.09069 25.0459ZM73.0545 49.2569H73.0432C71.8921 49.2569 70.9645 50.1915 70.9645 51.3441C70.9645 52.4967 71.9034 53.4312 73.0545 53.4312C74.2055 53.4312 75.1388 52.4967 75.1388 51.3441C75.1388 50.1915 74.2055 49.2569 73.0545 49.2569ZM73.0545 25.0459H73.0432C71.8921 25.0459 70.9645 25.9804 70.9645 27.133C70.9645 28.2842 71.9034 29.2202 73.0545 29.2202C74.2055 29.2202 75.1388 28.2842 75.1388 27.133C75.1388 25.9804 74.2055 25.0459 73.0545 25.0459ZM73.0545 74.3027H73.0432C71.8921 74.3027 70.9645 75.2362 70.9645 76.3906C70.9645 77.5422 71.9034 78.477 73.0545 78.477C74.2055 78.477 75.1388 77.5422 75.1388 76.3906C75.1388 75.2362 74.2055 74.3027 73.0545 74.3027ZM73.0545 61.7798H73.0432C71.8921 61.7798 70.9645 62.7143 70.9645 63.8684C70.9645 65.0195 71.9034 65.9541 73.0545 65.9541C74.2055 65.9541 75.1388 65.0195 75.1388 63.8684C75.1388 62.7143 74.2055 61.7798 73.0545 61.7798ZM58.8634 4.17431C60.014 4.17431 60.947 3.23976 60.947 2.08716C60.947 2.08716 60.9456 2.08574 60.9456 2.08432C60.9456 1.7459 60.8466 1.43864 60.7024 1.15544C60.6883 1.12854 60.6699 1.10871 60.6544 1.08323C60.5031 0.815605 60.2967 0.593296 60.0465 0.414882H60.0451C59.7044 0.17275 59.3115 0 58.8634 0H58.8521C57.7014 0 56.7727 0.934547 56.7727 2.08716C56.7727 3.23976 57.7127 4.17431 58.8634 4.17431ZM73.0545 12.523H73.0432C71.8921 12.523 70.9645 13.4575 70.9645 14.6101C70.9645 15.7627 71.9034 16.6973 73.0545 16.6973C74.2055 16.6973 75.1388 15.7627 75.1388 14.6101C75.1388 13.4575 74.2055 12.523 73.0545 12.523ZM58.8627 25.0459H58.8513C57.7003 25.0459 56.7727 25.9804 56.7727 27.133C56.7727 28.2842 57.7116 29.2202 58.8627 29.2202C60.0137 29.2202 60.947 28.2842 60.947 27.133C60.947 25.9804 60.0137 25.0459 58.8627 25.0459ZM58.8627 61.7798H58.8513C57.7003 61.7798 56.7727 62.7143 56.7727 63.8684C56.7727 65.0195 57.7116 65.9541 58.8627 65.9541C60.0137 65.9541 60.947 65.0195 60.947 63.8684C60.947 62.7143 60.0137 61.7798 58.8627 61.7798ZM58.8627 49.2569H58.8513C57.7003 49.2569 56.7727 50.1915 56.7727 51.3441C56.7727 52.4967 57.7116 53.4312 58.8627 53.4312C60.0137 53.4312 60.947 52.4967 60.947 51.3441C60.947 50.1915 60.0137 49.2569 58.8627 49.2569ZM58.8627 37.5688H58.8513C57.7003 37.5688 56.7727 38.5019 56.7727 39.6559C56.7727 40.8071 57.7116 41.7431 58.8627 41.7431C60.0137 41.7431 60.947 40.8071 60.947 39.6559C60.947 38.5019 60.0137 37.5688 58.8627 37.5688ZM58.8627 74.3027H58.8513C57.7003 74.3027 56.7727 75.2362 56.7727 76.3906C56.7727 77.5422 57.7116 78.477 58.8627 78.477C60.0137 78.477 60.947 77.5422 60.947 76.3906C60.947 75.2362 60.0137 74.3027 58.8627 74.3027ZM30.4736 53.4312C31.6247 53.4312 32.558 52.4967 32.558 51.3441C32.558 50.1915 31.6247 49.2569 30.4736 49.2569H30.4637C29.3113 49.2569 28.3836 50.1915 28.3836 51.3441C28.3836 52.4967 29.3226 53.4312 30.4736 53.4312ZM31.9471 87.4376C31.8849 87.3753 31.8 87.3441 31.7307 87.2917C31.3786 87.0169 30.9558 86.8257 30.4736 86.8257H30.4623C29.3113 86.8257 28.3836 87.7591 28.3836 88.9136C28.3836 89.4801 28.6141 89.9901 28.9818 90.3668C28.9832 90.3683 28.9832 90.3697 28.9846 90.3697C29.3636 90.7578 29.8896 91 30.4736 91C30.5839 91 30.6787 90.9547 30.7847 90.9377C30.7861 90.9377 30.7875 90.9363 30.789 90.9363C31.2811 90.8598 31.7109 90.6331 32.0234 90.2748C32.0743 90.2195 32.104 90.1515 32.1479 90.0906C32.2426 89.9561 32.343 89.8286 32.4052 89.6742C32.4986 89.4433 32.5537 89.1912 32.5551 88.922C32.5551 88.9192 32.558 88.9178 32.558 88.9136C32.558 88.3838 32.3444 87.9135 32.0206 87.5452C31.9909 87.5113 31.9782 87.4673 31.9471 87.4376ZM86.4336 29.056C86.684 29.1621 86.9584 29.2202 87.247 29.2202C87.5511 29.2202 87.8354 29.148 88.0957 29.0305C88.1042 29.0263 88.1099 29.0192 88.1184 29.0149C88.373 28.896 88.5922 28.729 88.7775 28.5223C89.1142 28.1529 89.3306 27.6716 89.3306 27.1337C89.3306 25.9815 88.397 25.0459 87.247 25.0459H87.2357C86.0842 25.0459 85.1563 25.9815 85.1563 27.1337C85.1563 27.9972 85.6839 28.7389 86.4336 29.056ZM87.247 41.7431C88.397 41.7431 89.3306 40.8071 89.3306 39.6559C89.3306 38.5019 88.397 37.5688 87.247 37.5688H87.2357C86.0842 37.5688 85.1563 38.5019 85.1563 39.6559C85.1563 40.8071 86.0941 41.7431 87.247 41.7431ZM87.247 53.4312C88.397 53.4312 89.3306 52.4967 89.3306 51.3441C89.3306 50.1915 88.397 49.2569 87.247 49.2569H87.2357C86.0842 49.2569 85.1563 50.1915 85.1563 51.3441C85.1563 52.4967 86.0941 53.4312 87.247 53.4312ZM44.6654 25.0459H44.6555C43.5045 25.0459 42.5755 25.9804 42.5755 27.133C42.5755 28.2842 43.5144 29.2202 44.6654 29.2202C45.8165 29.2202 46.7498 28.2842 46.7498 27.133C46.7498 25.9804 45.8165 25.0459 44.6654 25.0459ZM44.6654 12.523H44.6555C43.5045 12.523 42.5755 13.4575 42.5755 14.6101C42.5755 15.7627 43.5144 16.6973 44.6654 16.6973C45.8165 16.6973 46.7498 15.7627 46.7498 14.6101C46.7498 13.4575 45.8165 12.523 44.6654 12.523ZM44.6654 0H44.6555C43.5045 0 42.5755 0.934547 42.5755 2.08716C42.5755 3.23976 43.5144 4.17431 44.6654 4.17431C45.8165 4.17431 46.7498 3.23976 46.7498 2.08716C46.7498 0.934547 45.8165 0 44.6654 0ZM30.4736 78.477C31.6247 78.477 32.558 77.5422 32.558 76.3906C32.558 75.2362 31.6247 74.3027 30.4736 74.3027H30.4637C29.3113 74.3027 28.3836 75.2362 28.3836 76.3906C28.3836 77.5422 29.3226 78.477 30.4736 78.477ZM30.4736 65.9541C31.6247 65.9541 32.558 65.0195 32.558 63.8684C32.558 62.7143 31.6247 61.7798 30.4736 61.7798H30.4637C29.3113 61.7798 28.3836 62.7143 28.3836 63.8684C28.3836 65.0195 29.3226 65.9541 30.4736 65.9541ZM44.6654 37.5688H44.6555C43.5045 37.5688 42.5755 38.5019 42.5755 39.6559C42.5755 40.8071 43.5144 41.7431 44.6654 41.7431C45.8165 41.7431 46.7498 40.8071 46.7498 39.6559C46.7498 38.5019 45.8165 37.5688 44.6654 37.5688ZM58.8627 12.523H58.8513C57.7003 12.523 56.7727 13.4575 56.7727 14.6101C56.7727 15.7627 57.7116 16.6973 58.8627 16.6973C60.0137 16.6973 60.947 15.7627 60.947 14.6101C60.947 13.4575 60.0137 12.523 58.8627 12.523ZM44.6654 74.3027H44.6555C43.5045 74.3027 42.5755 75.2362 42.5755 76.3906C42.5755 77.5422 43.5144 78.477 44.6654 78.477C45.8165 78.477 46.7498 77.5422 46.7498 76.3906C46.7498 75.2362 45.8165 74.3027 44.6654 74.3027ZM44.6654 86.8257H44.6555C43.5045 86.8257 42.5755 87.7606 42.5755 88.9136C42.5755 90.0666 43.5144 91 44.6654 91C45.8165 91 46.7498 90.0666 46.7498 88.9136C46.7498 87.7606 45.8165 86.8257 44.6654 86.8257ZM44.6654 61.7798H44.6555C43.5045 61.7798 42.5755 62.7143 42.5755 63.8684C42.5755 65.0195 43.5144 65.9541 44.6654 65.9541C45.8165 65.9541 46.7498 65.0195 46.7498 63.8684C46.7498 62.7143 45.8165 61.7798 44.6654 61.7798ZM44.6654 49.2569H44.6555C43.5045 49.2569 42.5755 50.1915 42.5755 51.3441C42.5755 52.4967 43.5144 53.4312 44.6654 53.4312C45.8165 53.4312 46.7498 52.4967 46.7498 51.3441C46.7498 50.1915 45.8165 49.2569 44.6654 49.2569Z" fill="#017670"/>
</svg>
